# xmcd CD database file
#
# Track frame offsets:
#	150
#	4300
#	18499
#	33209
#	43192
#	61302
#	77923
#	92237
#	118799
#	134292
#	142791
#	156848
#	165348
#	175158
#	189366
#	204105
#	212757
#	226475
#	243718
#	256507
#
# Disc length: 3665 seconds
#
# Revision: 0
# Processed by: cddbd v1.5.1PL0 Copyright (c) Steve Scherf et al.
# Submitted via: CDex 1.51
#
DISCID=040e4f14
DTITLE=Choir of St.Giles' Cathedral, Edinburgh - Christmas at St.Giles'
DYEAR=1999
DGENRE=Christmas
TTITLE0=Psallite Unigenito
TTITLE1=Hark! The Hearld Angels Sing
TTITLE2=A Hymn to the Virgin
TTITLE3=In Dulci Jubilo (Buxtehude)
TTITLE4=In Dulci Jubilo (Bach)
TTITLE5=In The Bleak Mid-Winter
TTITLE6=The Lamb
TTITLE7=Les Bergers
TTITLE8=O Little Town of Bethlehem
TTITLE9=I Saw Three Ships
TTITLE10=Angel's From The Realms
TTITLE11=Josef, Lieber Josef Mein
TTITLE12=Ding Dong! Merrily on High
TTITLE13=It Came Upon a Midnight Clear
TTITLE14=Coventry Carol
TTITLE15=Susanni
TTITLE16=O Magnum Mysterium
TTITLE17=A Babe Is Born
TTITLE18=O Come all Ye faithful
TTITLE19=Noël Sussie
EXTD=YEAR: 1999
EXTT0=
EXTT1=
EXTT2=
EXTT3=
EXTT4=
EXTT5=
EXTT6=
EXTT7=
EXTT8=
EXTT9=
EXTT10=
EXTT11=
EXTT12=
EXTT13=
EXTT14=
EXTT15=
EXTT16=
EXTT17=
EXTT18=
EXTT19=
PLAYORDER=
